<?xml version="1.0" standalone="no"?>
<!DOCTYPE svg PUBLIC "-//W3C//DTD SVG 20010904//EN"
 "http://www.w3.org/TR/2001/REC-SVG-20010904/DTD/svg10.dtd">
<svg version="1.0" xmlns="http://www.w3.org/2000/svg"
 width="300.000000pt" height="300.000000pt" viewBox="0 0 300.000000 300.000000"
 preserveAspectRatio="xMidYMid meet">

<g transform="translate(0.000000,300.000000) scale(0.100000,-0.100000)"
fill="#000000" stroke="none">
<path d="M1305 2146 c-23 -24 -36 -32 -46 -25 -23 14 -55 10 -72 -9 -24 -26
-23 -50 1 -29 25 22 48 21 72 -3 22 -22 27 -66 8 -73 -21 -7 5 -42 33 -45 21
-2 22 -1 6 9 -16 10 -17 13 -3 33 8 13 18 40 22 61 3 20 20 53 36 71 25 28 37
34 70 34 21 0 37 -4 34 -9 -3 -4 5 -6 18 -4 33 7 111 -30 131 -61 14 -21 16
-38 10 -81 -5 -47 -3 -62 14 -91 23 -39 27 -59 9 -48 -7 4 -8 3 -4 -4 8 -13
36 -16 36 -4 0 4 -5 25 -11 46 -13 47 1 108 35 151 22 27 25 28 54 16 17 -7
38 -24 47 -37 20 -31 33 -120 16 -110 -6 4 -11 4 -10 -1 1 -4 1 -10 -1 -13 -1
-3 -4 -16 -6 -30 -2 -13 -10 -28 -17 -32 -9 -6 -9 -8 1 -8 7 0 11 -4 8 -9 -3
-5 9 -12 27 -15 50 -10 62 -20 47 -42 -11 -18 -11 -18 -5 1 5 15 3 17 -6 8
-16 -16 -1 -36 22 -30 40 11 65 -46 34 -76 -13 -13 -13 -16 1 -21 8 -3 13 -9
11 -13 -11 -19 13 -53 38 -53 18 0 24 -4 19 -12 -4 -7 -4 -10 1 -6 4 4 13 3
20 -2 8 -7 12 -5 12 5 0 9 -15 18 -39 22 l-38 8 20 39 c12 21 20 49 18 61 -2
14 7 35 22 51 14 16 17 22 6 14 -16 -13 -20 -12 -32 5 -8 10 -14 23 -14 28 0
20 42 77 52 71 7 -4 8 -2 4 4 -14 22 -36 12 -61 -28 -14 -22 -30 -40 -35 -40
-15 0 -90 76 -90 91 0 9 3 10 8 3 8 -13 110 -39 119 -30 13 13 -29 55 -68 68
-36 12 -44 20 -53 51 -24 79 -79 111 -148 84 l-40 -16 -36 38 c-45 47 -117 71
-210 71 -61 0 -67 -2 -97 -34z m580 -206 c4 -6 10 -8 14 -5 9 5 47 -32 40 -40
-3 -2 -25 9 -49 25 -26 17 -38 30 -28 30 9 0 20 -5 23 -10z m75 -171 c11 -20
11 -20 -14 -4 -30 20 -32 25 -11 25 8 0 19 -9 25 -21z"/>
<path d="M1505 2121 c-3 -5 -1 -12 5 -16 5 -3 10 -3 10 1 0 4 10 -1 22 -12
l22 -19 -20 27 c-20 29 -29 34 -39 19z"/>
<path d="M1161 2045 c0 -11 -8 -31 -17 -43 -14 -20 -22 -23 -58 -17 -65 10
-72 14 -85 41 l-11 25 -50 -28 c-28 -15 -50 -34 -50 -40 0 -8 8 -5 20 7 29 29
38 18 39 -45 0 -33 -4 -53 -9 -50 -6 4 -10 2 -10 -4 0 -22 23 -21 67 4 35 19
49 23 57 14 8 -9 7 -10 -4 -5 -13 7 -13 6 0 -6 8 -7 16 -32 18 -55 3 -40 1
-44 -32 -64 -28 -16 -36 -27 -36 -49 0 -16 -11 -42 -25 -58 -29 -34 -31 -44
-10 -36 8 4 13 10 10 14 -2 4 4 15 14 24 11 10 22 33 26 52 4 22 10 32 17 28
7 -5 8 -2 3 6 -6 10 -4 12 11 6 10 -4 15 -4 12 0 -4 4 9 20 29 36 27 21 47 29
73 27 19 -1 46 3 60 9 14 6 21 11 15 11 -5 1 1 8 13 17 18 13 29 14 55 5 l32
-11 -25 20 c-14 11 -21 20 -16 20 5 0 1 9 -9 20 -9 10 -20 19 -24 18 -19 -2
-32 3 -27 11 3 5 -1 14 -9 21 -20 17 -45 -3 -45 -36 0 -13 -4 -24 -10 -24 -5
0 -9 -3 -9 -7 1 -5 1 -20 0 -35 -1 -22 -6 -28 -23 -28 -12 0 -30 8 -41 18 -12
10 -17 11 -12 3 5 -9 4 -12 -3 -7 -6 3 -9 19 -8 34 2 15 4 32 5 37 0 6 15 19
31 28 34 20 63 70 57 95 -4 13 -5 13 -6 -3z m-94 -68 c7 -8 -9 -57 -17 -52 -5
3 -21 0 -37 -6 -24 -9 -30 -7 -46 12 -16 20 -16 23 -2 31 8 5 13 13 10 17 -5
9 83 6 92 -2z m154 -20 c-1 -4 -1 -16 -1 -27 0 -23 -18 -27 -26 -5 -8 20 3 48
17 43 6 -2 10 -7 10 -11z m22 -83 c-36 -30 -39 -30 -52 8 -9 26 -9 30 1 20 19
-19 38 -14 38 10 0 21 0 21 20 3 l21 -19 -28 -22z m38 39 c13 -16 12 -17 -3
-4 -10 7 -18 15 -18 17 0 8 8 3 21 -13z"/>
<path d="M1004 1966 c3 -22 22 -40 30 -28 3 5 -3 17 -13 27 -17 15 -19 15 -17
1z"/>
<path d="M1421 2003 c11 -3 14 -12 11 -33 -3 -19 3 -38 17 -56 25 -32 27 -50
5 -62 -13 -7 -14 -13 -6 -28 6 -10 12 -13 12 -6 0 14 31 16 46 3 5 -5 28 -11
52 -13 34 -3 40 -1 28 8 -9 6 -16 21 -16 33 0 25 -31 58 -78 83 -18 10 -32 25
-32 35 0 15 2 16 10 3 5 -8 10 -10 10 -4 0 17 -35 44 -56 43 -14 -1 -15 -2 -3
-6z"/>
<path d="M1375 1869 c4 -6 9 -8 12 -5 3 3 15 1 27 -5 20 -10 20 -10 2 5 -22
18 -51 22 -41 5z"/>
<path d="M2031 1853 c7 -12 15 -20 18 -17 3 2 -3 12 -13 22 -17 16 -18 16 -5
-5z"/>
<path d="M1730 1826 c-16 -51 -50 -66 -93 -42 l-32 18 25 -21 c14 -11 30 -21
35 -22 6 0 18 -2 28 -4 9 -2 15 1 11 6 -3 5 5 10 18 10 13 1 35 3 51 5 15 1
25 -1 22 -7 -4 -5 -2 -9 4 -9 22 0 18 17 -11 40 -16 13 -33 33 -38 44 -6 18
-9 15 -20 -18z"/>
<path d="M1325 1840 c3 -5 11 -10 16 -10 6 0 7 5 4 10 -3 6 -11 10 -16 10 -6
0 -7 -4 -4 -10z"/>
<path d="M1215 1820 c-3 -5 -1 -10 4 -10 6 0 11 5 11 10 0 6 -2 10 -4 10 -3 0
-8 -4 -11 -10z"/>
<path d="M1107 1803 c-4 -3 -7 -13 -7 -22 1 -13 3 -13 11 2 11 19 8 33 -4 20z"/>
<path d="M1210 1789 c0 -5 5 -7 10 -4 6 3 10 8 10 11 0 2 -4 4 -10 4 -5 0 -10
-5 -10 -11z"/>
<path d="M1366 1774 c-11 -7 -18 -16 -15 -18 2 -2 13 2 23 10 11 7 18 16 15
18 -2 2 -13 -2 -23 -10z"/>
<path d="M1125 1760 c-3 -5 -13 -6 -22 -3 -10 4 -14 2 -10 -4 13 -20 43 -21
43 -2 0 21 -2 23 -11 9z"/>
<path d="M1197 1735 c2 -19 -1 -35 -6 -35 -5 0 -6 -15 -1 -35 5 -24 4 -35 -4
-35 -7 0 -6 -3 2 -9 7 -4 12 -12 11 -17 -3 -19 1 -44 9 -44 4 0 6 26 5 57 -1
32 -2 79 -2 106 -1 26 -5 47 -10 47 -4 0 -7 -16 -4 -35z"/>
<path d="M1860 1708 c0 -9 7 -19 16 -22 15 -6 15 -4 3 11 -7 10 -15 20 -16 22
-2 2 -3 -3 -3 -11z"/>
<path d="M1304 1688 c3 -15 2 -30 -4 -33 -5 -3 -10 -33 -10 -65 0 -46 -4 -61
-17 -69 -16 -9 -16 -10 -2 -11 9 0 36 -15 59 -33 l43 -33 36 32 c37 35 52 36
44 5 -3 -10 0 -22 6 -25 7 -5 11 4 11 23 0 16 10 42 23 58 18 21 22 34 16 53
-4 14 -7 42 -8 62 -1 20 -6 40 -11 43 -24 15 -106 13 -133 -3 -27 -16 -29 -16
-44 3 -15 19 -15 19 -9 -7z"/>
<path d="M1020 1661 c-22 -6 -25 -13 -28 -58 -3 -45 1 -55 29 -87 17 -20 35
-33 40 -30 5 3 10 -5 10 -18 1 -19 3 -18 8 7 4 17 12 29 18 28 7 -1 9 15 7 45
-3 37 -2 43 6 27 9 -17 9 -15 4 9 -7 36 -41 86 -57 85 -7 -1 -23 -4 -37 -8z"/>
<path d="M917 1623 c8 -21 19 -43 24 -49 7 -8 -3 -18 -31 -32 -30 -15 -36 -21
-24 -26 26 -10 41 -7 24 5 -12 9 -11 10 8 6 12 -3 20 -1 17 3 -10 15 14 21 37
9 21 -11 21 -9 -4 17 -29 32 -51 81 -42 95 3 5 -2 9 -10 9 -13 0 -13 -4 1 -37z"/>
<path d="M1640 1615 c-13 -14 -19 -25 -14 -25 8 1 50 50 41 50 -2 0 -14 -11
-27 -25z"/>
<path d="M2065 1575 c22 -8 54 -13 70 -13 19 0 7 5 -30 13 -75 17 -92 17 -40
0z"/>
<path d="M1695 1571 c-6 -11 13 -26 22 -17 4 3 1 6 -6 6 -7 0 -9 5 -6 10 3 6
4 10 1 10 -3 0 -7 -4 -11 -9z"/>
<path d="M1834 1552 c3 -5 -16 -8 -42 -7 -47 3 -47 3 -7 -4 l40 -7 -47 -23
c-56 -26 -65 -38 -12 -16 35 14 94 53 94 61 0 2 -7 4 -16 4 -8 0 -13 -4 -10
-8z"/>
<path d="M1610 1515 c-17 -10 -20 -14 -9 -15 9 0 22 7 29 15 15 18 12 18 -20
0z"/>
<path d="M2098 1513 c-9 -9 -47 -26 -83 -38 -36 -13 -60 -25 -53 -28 17 -6
128 44 147 66 17 22 10 22 -11 0z"/>
<path d="M851 1504 c25 -31 113 -74 149 -73 l35 0 -45 13 c-61 16 -121 46
-127 63 -3 7 -10 13 -15 13 -6 0 -4 -7 3 -16z"/>
<path d="M1650 1480 c-22 -7 -21 -8 13 -9 23 -1 36 3 32 9 -7 11 -10 11 -45 0z"/>
<path d="M1781 1454 c6 -7 26 -19 45 -26 19 -6 34 -16 34 -20 0 -4 7 -8 15 -8
8 0 15 5 15 10 0 6 -6 10 -13 10 -8 0 -35 11 -60 24 -26 13 -42 17 -36 10z"/>
<path d="M1110 1405 c-24 -25 -42 -45 -39 -45 3 0 25 20 49 45 24 25 42 45 39
45 -3 0 -25 -20 -49 -45z"/>
<path d="M1618 1443 c7 -3 16 -2 19 1 4 3 -2 6 -13 5 -11 0 -14 -3 -6 -6z"/>
<path d="M1050 1414 c-25 -13 -63 -26 -85 -30 l-40 -7 23 21 c14 12 19 23 13
27 -9 5 -55 -54 -47 -62 1 -1 18 2 37 7 l34 10 -27 -23 c-46 -37 -51 -67 -21
-127 37 -74 166 -202 226 -225 42 -16 47 -21 47 -49 -1 -41 -32 -110 -76 -163
-28 -34 -40 -42 -56 -37 -16 5 -19 3 -13 -7 5 -8 -1 -6 -12 4 -11 9 -27 17
-35 17 -10 0 -18 13 -22 35 -5 24 -18 43 -43 62 -32 24 -47 28 -118 31 -101 5
-168 -20 -220 -81 -52 -61 -70 -124 -70 -247 0 -99 2 -110 32 -170 36 -73 40
-57 -39 -171 -21 -30 -51 -94 -67 -142 l-30 -88 27 3 c25 3 28 8 39 68 18 96
33 141 43 135 6 -4 7 1 3 11 -5 13 -3 15 7 9 8 -5 11 -4 7 1 -6 10 9 42 15 34
71 -96 98 -127 139 -157 36 -26 48 -40 43 -52 -14 -35 -16 -51 -5 -51 6 0 11
6 11 14 0 8 4 26 10 40 l10 26 55 -30 c30 -16 55 -26 55 -21 0 5 8 12 17 15
15 6 15 4 -2 -14 -10 -11 -15 -23 -11 -27 4 -4 11 -1 16 7 7 10 10 11 10 3 0
-7 6 -13 14 -13 15 0 28 48 15 56 -5 3 -9 19 -9 35 0 18 4 28 10 24 6 -4 10 6
10 22 0 22 2 25 10 13 7 -11 8 -5 3 20 -3 19 -10 37 -15 38 -20 8 -7 30 17 27
27 -2 33 13 13 34 -8 8 -2 7 12 -2 25 -16 26 -16 27 5 4 47 22 51 129 33 55
-9 107 -18 116 -18 9 -1 15 -4 13 -7 -2 -3 44 -6 102 -7 58 -1 107 -4 110 -7
3 -2 -1 -14 -7 -26 -11 -20 -10 -21 9 -10 12 6 21 8 21 4 0 -3 7 -1 15 6 16
13 35 6 35 -15 0 -15 -27 -28 -41 -19 -13 8 -24 -25 -12 -37 7 -7 22 -5 47 5
31 13 36 13 36 0 0 -7 -4 -14 -9 -14 -5 0 -10 -26 -11 -58 -2 -80 -2 -82 -12
-76 -5 3 -6 9 -3 14 3 4 -1 13 -8 18 -21 18 -19 -24 3 -43 12 -11 31 -15 57
-13 38 3 44 20 9 25 -11 2 -22 6 -25 10 -3 3 4 4 15 1 18 -5 23 0 27 21 3 14
22 45 41 68 40 46 43 59 21 83 -12 13 -12 22 -3 46 6 17 8 42 4 57 -8 33 -41
53 -61 37 -9 -8 -29 -9 -55 -5 -38 6 -43 4 -75 -30 l-34 -37 -141 16 c-78 8
-146 18 -151 21 -5 4 -9 14 -9 24 0 22 -19 41 -42 41 -10 0 -25 12 -35 28 -33
54 -76 68 -109 35 -15 -16 -15 -18 11 -40 29 -26 26 -38 -8 -38 -14 0 -23 -8
-28 -25 -6 -22 -7 -23 -14 -7 -5 12 -15 17 -27 14 -11 -3 -22 2 -28 14 -13 23
-38 25 -47 4 -5 -14 -8 -14 -26 2 -37 33 -97 115 -91 124 3 5 18 -7 33 -28 15
-21 35 -44 43 -51 13 -11 16 -7 22 25 3 21 17 61 30 90 19 40 31 54 53 59 15
4 45 16 65 28 l37 21 73 -71 c40 -39 102 -88 137 -109 l64 -38 21 25 c73 91
86 107 86 113 0 3 -5 3 -12 -1 -7 -5 -8 -3 -4 5 5 7 11 10 14 7 3 -4 15 3 27
14 12 12 26 20 31 18 5 -2 29 18 52 44 24 26 54 50 65 54 12 4 36 18 52 31 50
41 179 129 197 136 10 3 55 -5 100 -19 46 -14 115 -31 153 -39 39 -8 102 -27
141 -41 60 -21 79 -34 115 -77 24 -29 83 -93 132 -144 48 -51 87 -96 87 -100
0 -5 -6 -15 -12 -23 -11 -12 -10 -12 4 -1 14 10 17 9 23 -8 3 -12 3 -26 -1
-33 -4 -7 -4 -10 1 -6 10 9 57 -90 53 -111 -2 -9 -37 24 -92 87 -49 56 -91
102 -93 102 -7 0 53 -89 132 -196 104 -139 105 -142 105 -203 0 -39 4 -51 15
-51 20 0 20 60 0 174 -12 67 -24 101 -52 144 -20 31 -46 80 -59 107 -12 28
-59 91 -104 140 -44 50 -97 111 -118 137 -45 57 -72 71 -277 138 -88 29 -179
61 -202 71 -41 17 -42 19 -45 70 -2 40 -8 55 -23 63 -11 6 -24 17 -28 24 -5 7
-12 10 -16 8 -4 -3 -6 16 -4 42 4 38 1 53 -17 75 -12 15 -26 25 -31 22 -5 -4
-6 1 -3 9 5 12 15 10 60 -11 30 -13 60 -22 67 -20 7 3 5 6 -5 6 -10 1 -18 6
-18 12 0 5 -4 8 -9 5 -5 -4 -38 7 -73 24 -72 34 -81 36 -97 16 -7 -8 -48 -29
-93 -47 -60 -24 -109 -55 -186 -116 -91 -73 -109 -83 -143 -83 -22 0 -54 7
-71 16 -45 24 -118 94 -112 109 3 7 1 16 -5 20 -7 3 -8 0 -5 -9 12 -30 -3 -16
-43 42 -61 88 -61 92 1 30 57 -56 58 -57 83 -41 15 10 23 23 20 34 -3 11 6 25
24 38 18 14 29 31 29 46 0 20 -6 25 -35 31 -40 7 -129 1 -160 -11 -43 -17 17
34 81 70 35 20 66 40 69 45 3 6 5 9 3 9 -2 -1 -23 -12 -48 -25z m20 -103 c0
-6 -4 -12 -8 -15 -5 -3 -9 1 -9 9 0 8 4 15 9 15 4 0 8 -4 8 -9z m605 -61 c3
-5 -1 -10 -10 -10 -9 0 -28 -13 -43 -29 -15 -17 -40 -35 -57 -41 l-30 -11 25
25 c27 27 90 74 102 75 4 1 10 -3 13 -9z m22 -27 c-4 -3 -2 -12 4 -20 9 -10 8
-13 -5 -13 -9 0 -16 6 -16 13 0 14 9 27 18 27 3 0 2 -3 -1 -7z m-201 -119
c-23 -58 -25 -71 -15 -101 6 -18 8 -41 5 -49 -3 -8 -2 -12 3 -9 6 3 13 -15 16
-39 8 -53 -16 -138 -50 -176 -12 -14 -30 -45 -39 -70 -10 -25 -40 -84 -67
-132 l-50 -88 -42 21 c-99 51 -177 137 -177 196 0 41 10 61 66 133 44 57 74
124 74 167 0 18 9 28 35 39 19 8 64 39 100 69 63 54 90 70 65 40 -20 -24 -5
-18 16 7 12 14 14 19 4 13 -13 -7 -13 -6 0 8 18 19 72 48 78 42 3 -2 -8 -34
-22 -71z m261 24 c-3 -7 -5 -2 -5 12 0 14 2 19 5 13 2 -7 2 -19 0 -25z m-217
3 c-13 -25 -13 -77 1 -102 5 -11 25 -29 42 -40 28 -18 29 -20 7 -14 -35 9 -80
60 -80 91 0 24 25 84 36 84 2 0 0 -9 -6 -19z m184 6 c21 -16 19 -68 -4 -75
-12 -4 -13 -2 -2 9 19 20 14 46 -10 63 -12 9 -18 16 -12 16 6 0 18 -6 28 -13z
m-131 -11 c3 -8 3 -16 0 -19 -9 -10 -33 5 -33 19 0 18 26 18 33 0z m94 -38
c-3 -8 -6 -5 -6 6 -1 11 2 17 5 13 3 -3 4 -12 1 -19z m-157 -121 c-1 -53 -18
-47 -32 12 -9 33 -13 63 -10 66 9 8 42 -53 42 -78z m300 21 c0 -39 -17 -27
-22 16 -3 28 -1 33 9 24 7 -6 13 -24 13 -40z m-56 17 c-4 -8 -11 -12 -17 -8
-8 5 -7 8 1 11 7 2 9 9 6 14 -4 7 -2 8 4 4 6 -4 9 -13 6 -21z m23 -35 c-3 -11
-1 -20 4 -20 5 0 9 -11 9 -25 0 -28 -87 -123 -135 -148 l-31 -15 0 33 c0 28 5
36 26 44 33 12 59 38 95 100 32 55 40 62 32 31z m-129 -52 c-6 -18 -28 -21
-28 -4 0 9 7 16 16 16 9 0 14 -5 12 -12z m-33 -44 c15 -4 39 -1 53 5 25 11 26
10 8 -4 -11 -8 -32 -15 -47 -15 -27 0 -79 34 -79 51 0 5 9 0 20 -11 11 -11 31
-22 45 -26z m-718 -3 c47 -22 69 -50 78 -104 9 -46 -9 -77 -57 -100 -66 -31
-81 -30 -100 3 -15 27 -22 30 -65 29 -26 -1 -40 -3 -30 -6 16 -4 16 -7 -4 -35
-30 -42 -36 -108 -14 -166 14 -35 45 -73 123 -150 l104 -103 -7 -70 c-5 -44
-12 -72 -21 -76 -26 -10 -120 53 -199 132 -96 96 -162 214 -172 306 -11 113
44 271 111 315 72 46 181 57 253 25z m629 1 c-5 -13 1 -22 16 -30 16 -8 18
-11 7 -11 -22 -1 -41 23 -33 43 8 22 17 20 10 -2z m4 -88 c0 -2 -7 -4 -15 -4
-8 0 -15 4 -15 10 0 5 7 7 15 4 8 -4 15 -8 15 -10z m-16 -37 c8 -3 31 0 51 9
19 8 35 12 35 10 0 -16 -25 -56 -35 -56 -7 0 -33 -18 -59 -41 -42 -37 -63 -43
-33 -9 6 8 -3 1 -22 -15 l-33 -30 7 25 c3 14 9 34 12 45 3 11 14 31 24 44 11
13 19 33 20 45 l0 21 9 -21 c4 -12 15 -24 24 -27z m84 32 c-12 -7 -24 -7 -35
0 -15 9 -12 10 17 10 29 0 32 -1 18 -10z m-580 -49 c6 -37 -27 -97 -62 -114
-46 -21 -98 -29 -126 -17 -14 5 -18 10 -10 11 12 0 11 3 -2 11 -10 5 -18 17
-18 25 0 23 -56 -46 -71 -89 -13 -38 -14 -38 -20 -13 -14 50 31 146 68 146 8
0 20 -14 26 -30 11 -29 14 -31 63 -28 29 2 50 6 48 10 -2 4 5 10 17 13 23 8
59 61 59 88 0 26 24 15 28 -13z m35 -7 c3 -5 -1 -21 -8 -38 l-13 -30 -1 38
c-1 33 11 49 22 30z m55 -378 c48 -10 39 -20 -20 -20 -29 0 -61 -4 -70 -9 -12
-5 -18 -4 -18 3 0 6 9 11 20 11 11 0 25 9 32 20 7 10 15 15 18 11 3 -5 20 -12
38 -16z m-234 -11 c9 -8 16 -20 16 -27 0 -6 -9 -1 -20 11 -30 32 -26 46 4 16z
m-151 -152 c26 -23 47 -45 47 -48 0 -10 -82 67 -127 119 -24 27 -43 53 -43 59
0 5 17 -12 38 -39 22 -26 60 -67 85 -91z m217 100 c0 -10 -5 -10 -21 -2 -16 9
-18 14 -8 26 10 12 14 12 20 2 5 -7 9 -19 9 -26z m620 24 c0 -1 -11 -15 -25
-30 -28 -30 -35 -18 -8 14 15 18 33 27 33 16z m96 -40 c-4 -26 -2 -54 5 -70
10 -20 10 -29 1 -38 -9 -9 -12 -7 -12 10 0 12 -5 31 -11 41 -10 16 -10 33 3
76 2 5 -10 13 -27 16 -29 6 -28 7 9 8 l38 1 -6 -44z m-756 -204 c-12 -4 -97
38 -112 55 -6 8 19 -1 55 -19 37 -18 62 -34 57 -36z"/>
<path d="M1486 883 c-6 -14 -5 -15 5 -6 7 7 10 15 7 18 -3 3 -9 -2 -12 -12z"/>
<path d="M1101 684 c0 -11 3 -14 6 -6 3 7 2 16 -1 19 -3 4 -6 -2 -5 -13z"/>
<path d="M1704 826 c-10 -8 -16 -17 -13 -20 3 -3 14 3 24 14 21 23 17 26 -11
6z"/>
<path d="M1622 1430 c-18 -4 -36 -11 -40 -15 -4 -3 5 -4 20 0 15 4 39 8 52 9
13 0 22 4 19 9 -5 8 -5 8 -51 -3z"/>
<path d="M2020 1413 l31 -28 -48 0 c-35 0 -68 -10 -124 -38 -41 -20 -84 -37
-94 -37 -16 0 -12 -7 17 -37 20 -21 44 -51 52 -68 11 -20 16 -24 16 -12 0 9
-18 37 -39 60 l-39 43 93 42 c95 43 131 50 167 31 11 -6 22 -8 25 -5 7 7 -64
76 -78 76 -5 0 5 -12 21 -27z"/>
<path d="M1538 1403 c7 -3 16 -2 19 1 4 3 -2 6 -13 5 -11 0 -14 -3 -6 -6z"/>
<path d="M1691 1383 c2 -23 2 -24 6 -5 4 21 7 22 76 16 40 -4 70 -4 67 -2 -3
3 -38 9 -77 12 l-73 7 1 -28z"/>
<path d="M1517 1371 c-4 -17 -3 -21 5 -13 5 5 8 16 6 23 -3 8 -7 3 -11 -10z"/>
<path d="M1456 1322 l-19 -27 29 25 c16 14 31 26 33 28 2 1 -2 2 -10 2 -8 0
-23 -13 -33 -28z"/>
<path d="M1692 1334 c-7 -8 -8 -14 -3 -14 10 0 25 19 20 25 -2 1 -10 -3 -17
-11z"/>
<path d="M1624 1331 c3 -5 15 -7 26 -4 28 7 25 13 -6 13 -14 0 -23 -4 -20 -9z"/>
<path d="M1393 1255 c0 -22 2 -30 4 -17 2 12 2 30 0 40 -3 9 -5 -1 -4 -23z"/>
<path d="M1300 1262 c0 -7 -8 -12 -18 -12 -22 0 -52 -30 -52 -51 0 -11 -2 -11
-9 -1 -6 10 -10 10 -21 -2 -7 -9 -16 -13 -21 -10 -5 3 -6 -2 -3 -10 8 -20 24
-21 24 -1 0 8 5 15 10 15 6 0 10 -5 10 -11 0 -5 4 -8 9 -5 5 4 12 0 15 -6 3
-7 3 -1 -1 15 -6 31 11 57 38 57 19 0 35 17 25 27 -3 4 -6 1 -6 -5z"/>
<path d="M1363 1249 c-4 -12 -11 -18 -20 -15 -8 3 -11 2 -8 -3 3 -6 14 -9 25
-8 14 1 19 8 18 24 -3 28 -8 29 -15 2z"/>
<path d="M1130 1176 c0 -2 7 -7 16 -10 8 -3 12 -2 9 4 -6 10 -25 14 -25 6z"/>
<path d="M1110 1162 c0 -6 -7 -9 -15 -6 -8 4 -15 1 -15 -6 0 -6 5 -8 10 -5 6
3 10 0 10 -7 0 -8 5 -6 11 5 6 10 8 21 5 24 -3 4 -6 1 -6 -5z"/>
<path d="M1055 1150 c-3 -5 -1 -10 4 -10 6 0 11 5 11 10 0 6 -2 10 -4 10 -3 0
-8 -4 -11 -10z"/>
<path d="M1124 1131 c4 -5 0 -11 -6 -14 -7 -3 -3 -4 9 -4 17 1 19 4 11 14 -12
15 -22 18 -14 4z"/>
<path d="M1780 794 c-25 -25 -97 -81 -160 -124 -70 -48 -149 -113 -200 -166
-94 -96 -79 -98 27 -3 38 33 111 89 163 123 94 63 141 106 195 179 37 49 29
47 -25 -9z"/>
<path d="M2205 720 c-8 -24 -56 -60 -81 -60 -10 0 -44 -28 -75 -61 -53 -58
-60 -61 -91 -55 -33 6 -33 6 -12 -12 25 -20 46 -58 74 -130 24 -63 25 -91 5
-118 -14 -18 -14 -17 -10 16 5 34 5 34 -5 6 -5 -16 -7 -33 -5 -37 7 -10 -44
-117 -59 -126 -7 -5 -28 -26 -47 -47 -27 -31 -29 -37 -11 -27 27 14 29 3 7
-39 -15 -28 -14 -30 4 -30 23 0 31 18 32 78 l2 47 7 -45 c4 -26 3 -53 -2 -64
-8 -14 -7 -17 4 -14 9 4 12 22 10 63 -2 45 2 65 20 93 12 20 23 41 24 47 1 6
16 34 33 62 l31 51 -25 80 c-29 93 -26 111 37 196 44 60 72 61 162 1 37 -24
76 -47 85 -50 21 -6 36 -34 51 -90 7 -30 31 -60 91 -120 l80 -80 -4 -50 c-3
-34 0 -57 11 -73 12 -19 13 -34 5 -77 -9 -51 -8 -53 11 -52 12 0 24 6 28 12
12 15 10 67 -2 60 -6 -3 -10 5 -10 19 0 14 5 28 10 31 15 9 -9 37 -27 31 -10
-4 -13 8 -13 51 l0 55 -82 84 c-69 71 -82 89 -82 118 -1 19 -4 32 -8 29 -11
-6 -10 5 2 28 9 15 7 21 -5 25 -9 4 -14 13 -11 21 4 10 1 11 -14 3 -23 -12
-33 -13 -26 -1 4 5 -3 7 -14 4 -22 -6 -94 42 -85 57 3 5 1 12 -5 15 -7 4 -8
23 -4 51 6 45 0 59 -11 24z m10 -88 c-3 -3 -11 0 -18 7 -9 10 -8 11 6 5 10 -3
15 -9 12 -12z m-208 -134 c-3 -8 -6 -5 -6 6 -1 11 2 17 5 13 3 -3 4 -12 1 -19z
m573 -369 c0 -6 -4 -7 -10 -4 -5 3 -10 11 -10 16 0 6 5 7 10 4 6 -3 10 -11 10
-16z m-3 -101 c-3 -7 -5 -2 -5 12 0 14 2 19 5 13 2 -7 2 -19 0 -25z"/>
<path d="M2290 716 c0 -2 8 -10 18 -17 15 -13 16 -12 3 4 -13 16 -21 21 -21
13z"/>
<path d="M1729 673 c-13 -16 -12 -17 4 -4 16 13 21 21 13 21 -2 0 -10 -8 -17
-17z"/>
<path d="M1030 607 c-1 -20 44 -91 80 -127 38 -38 126 -90 152 -90 7 0 -11 14
-41 31 -65 38 -155 124 -145 141 4 7 3 8 -4 4 -6 -4 -18 5 -26 21 -8 15 -15
24 -16 20z"/>
<path d="M2495 490 c10 -11 20 -20 23 -20 3 0 -3 9 -13 20 -10 11 -20 20 -23
20 -3 0 3 -9 13 -20z"/>
<path d="M1820 273 c-29 -87 -64 -180 -79 -208 -14 -27 -27 -53 -29 -57 -2 -5
21 -8 50 -8 l54 0 24 58 c13 31 37 79 52 106 42 71 28 66 -22 -9 -25 -35 -46
-63 -47 -61 -6 5 18 160 38 245 11 46 18 86 15 88 -2 2 -28 -67 -56 -154z"/>
<path d="M1066 229 c-8 -40 -17 -111 -21 -172 l-5 -57 224 0 223 0 5 43 c2 23
2 71 -1 107 l-6 65 -70 12 c-38 6 -132 14 -207 18 l-137 8 -5 -24z m84 -140
c0 -8 4 -9 13 0 15 12 27 5 27 -15 0 -7 -14 -12 -34 -12 -25 0 -36 5 -39 19
-4 14 0 19 14 19 10 0 19 -5 19 -11z m57 -21 c-3 -8 -6 -5 -6 6 -1 11 2 17 5
13 3 -3 4 -12 1 -19z m66 4 c12 -10 16 -9 21 3 6 17 48 17 46 1 -1 -5 4 -13
12 -17 8 -6 -4 -9 -34 -9 -26 0 -50 5 -53 10 -4 6 -9 8 -13 6 -4 -2 -13 2 -20
10 -11 12 -10 13 7 11 10 -2 26 -8 34 -15z m127 -2 c0 5 10 10 23 10 18 0 19
-2 7 -10 -13 -8 -13 -10 0 -10 10 0 11 -3 3 -11 -8 -8 -17 -8 -31 0 -10 6 -22
8 -24 5 -3 -3 -8 2 -12 11 -4 13 -2 14 14 5 14 -7 20 -7 20 0z"/>
<path d="M1310 70 c0 -5 5 -10 10 -10 6 0 10 5 10 10 0 6 -4 10 -10 10 -5 0
-10 -4 -10 -10z"/>
<path d="M540 175 c0 -5 5 -17 10 -25 5 -8 10 -10 10 -5 0 6 -5 17 -10 25 -5
8 -10 11 -10 5z"/>
<path d="M970 71 c0 -11 5 -23 10 -26 6 -3 10 1 10 9 0 9 0 19 1 23 0 4 -4 9
-10 11 -6 2 -11 -5 -11 -17z"/>
<path d="M1010 49 c-12 -23 -19 -43 -16 -46 3 -3 10 6 16 21 5 15 15 36 20 47
6 10 8 19 6 19 -3 0 -15 -18 -26 -41z"/>
</g>
</svg>
